<svg xmlns="http://www.w3.org/2000/svg" xmlns:xlink="http://www.w3.org/1999/xlink" width="240.158" height="196.543" viewBox="0 0 240.158 196.543"><defs><style>.a{opacity:0.5;}.b{fill:url(#a);}.c{fill:#fff;}.d,.k,.m{fill:#3182ce;}.d{opacity:0.3;}.e{fill:url(#b);}.f{fill:#f5f5f5;}.g{fill:#dbdbdb;}.h{fill:url(#c);}.i{fill:url(#d);}.j{fill:url(#e);}.k{opacity:0.4;}.l{fill:#3ad29f;}.n{fill:#fda57d;}.o{fill:#333;}.p{opacity:0.1;}.q{fill:#4d8af0;}.r{fill:#fdb797;}.s{fill:#be7c5e;}.t{fill:#f55f44;}</style><linearGradient id="a" x1="0.141" y1="1.023" x2="0.929" y2="-0.01" gradientUnits="objectBoundingBox"><stop offset="0" stop-color="gray" stop-opacity="0.251"/><stop offset="0.54" stop-color="gray" stop-opacity="0.122"/><stop offset="1" stop-color="gray" stop-opacity="0.102"/></linearGradient><linearGradient id="b" x1="0.5" y1="1" x2="0.5" y2="0" xlink:href="#a"/><linearGradient id="c" x1="-1.429" y1="1.019" x2="-0.642" y2="-0.015" xlink:href="#a"/><linearGradient id="d" x1="-2.26" y1="1" x2="-2.26" y2="0" xlink:href="#a"/><linearGradient id="e" x1="0.141" y1="1.022" x2="0.928" y2="-0.011" xlink:href="#a"/></defs><g transform="translate(0 -0.01)"><g class="a" transform="translate(148.403 0.01)"><path class="b" d="M799.433,63,715,63.206a3.469,3.469,0,0,0-3.461,3.476l.371,157.915a3.469,3.469,0,0,0,3.492,3.459l84.432-.206a3.469,3.469,0,0,0,3.461-3.476l-.383-157.917A3.469,3.469,0,0,0,799.433,63Z" transform="translate(-711.54 -63)"/></g><rect class="c" width="88.904" height="160.472" rx="13.64" transform="translate(149.633 2.372) rotate(-0.14)"/><path class="d" d="M789.8,87.391a7.207,7.207,0,0,1-7.087,6.148L752,93.609a7.207,7.207,0,0,1-7.11-6.112l-16.264.041a3.377,3.377,0,0,0-3.37,3.385l.353,145.673a3.377,3.377,0,0,0,3.39,3.37l77.7-.188a3.377,3.377,0,0,0,3.37-3.385L809.723,90.72a3.377,3.377,0,0,0-3.385-3.37Z" transform="translate(-573.373 -81.157)"/><g class="a" transform="translate(168.958 17.591)"><path class="e" d="M844.294,158.134a25.9,25.9,0,1,0-40.352,21.5l.015.114a8.863,8.863,0,0,0,2.938,1.869l.033-.114c1.211,1.041,6.318,2.707,12.189,2.692h.127a23.789,23.789,0,0,0,11.3-2.575s.03-.069.079-.2a9.227,9.227,0,0,0,2.443-1.673l.041-.295A25.873,25.873,0,0,0,844.294,158.134Z" transform="translate(-792.49 -132.234)"/></g><circle class="f" cx="25.124" cy="25.124" r="25.124" transform="translate(169.738 18.369)"/><rect class="g" width="19.812" height="1.239" rx="0.62" transform="translate(183.381 8.367) rotate(-0.86)"/><circle class="g" cx="0.744" cy="0.744" r="0.744" transform="translate(206.654 7.769) rotate(-0.86)"/><rect class="f" width="41.137" height="4.571" transform="translate(172.77 78.701)"/><rect class="f" width="59.42" height="4.571" transform="translate(163.628 87.842)"/><g class="a" transform="translate(0 0.01)"><path class="h" d="M130.982,63l84.432.206a3.469,3.469,0,0,1,3.461,3.476L218.5,224.6a3.469,3.469,0,0,1-3.492,3.459l-84.432-.206a3.469,3.469,0,0,1-3.461-3.476L127.5,66.456A3.469,3.469,0,0,1,130.982,63Z" transform="translate(-127.12 -63)"/></g><rect class="c" width="88.904" height="160.472" rx="13.64" transform="translate(90.134 162.842) rotate(-179.86)"/><path class="d" d="M161,87.391a7.207,7.207,0,0,0,7.087,6.148l30.708.074a7.207,7.207,0,0,0,7.11-6.112l16.264.041a3.377,3.377,0,0,1,3.37,3.385L225.19,236.6a3.377,3.377,0,0,1-3.387,3.367l-77.7-.188a3.377,3.377,0,0,1-3.37-3.385l.353-145.673a3.377,3.377,0,0,1,3.385-3.37Z" transform="translate(-137.274 -81.157)"/><g class="a" transform="translate(19.395 17.591)"><path class="i" d="M203.5,158.134a25.9,25.9,0,1,1,40.352,21.5l-.015.114a8.865,8.865,0,0,1-2.938,1.869l-.033-.114c-1.211,1.041-6.318,2.707-12.189,2.692h-.127a23.789,23.789,0,0,1-11.3-2.575s-.03-.069-.079-.2a9.228,9.228,0,0,1-2.443-1.673l-.041-.295A25.873,25.873,0,0,1,203.5,158.134Z" transform="translate(-203.5 -132.234)"/></g><circle class="f" cx="25.124" cy="25.124" r="25.124" transform="translate(20.172 18.369)"/><rect class="g" width="19.812" height="1.239" rx="0.62" transform="translate(56.756 9.603) rotate(-179.14)"/><circle class="g" cx="0.744" cy="0.744" r="0.744" transform="translate(31.993 9.23) rotate(-89.14)"/><rect class="f" width="41.137" height="4.571" transform="translate(67.388 83.272) rotate(180)"/><rect class="f" width="59.42" height="4.571" transform="translate(76.53 92.413) rotate(180)"/><g class="a" transform="translate(74.001 31.497)"><path class="j" d="M506.433,187,422,187.206a3.469,3.469,0,0,0-3.461,3.476l.371,157.915a3.469,3.469,0,0,0,3.492,3.459l84.432-.206a3.469,3.469,0,0,0,3.461-3.476l-.383-157.917A3.469,3.469,0,0,0,506.433,187Z" transform="translate(-418.54 -187)"/></g><rect class="c" width="88.904" height="160.472" rx="13.64" transform="translate(75.232 33.86) rotate(-0.14)"/><path class="k" d="M496.8,211.391a7.206,7.206,0,0,1-7.087,6.148l-30.71.071a7.207,7.207,0,0,1-7.11-6.112l-16.264.041a3.377,3.377,0,0,0-3.37,3.385l.353,145.673a3.377,3.377,0,0,0,3.39,3.37l77.7-.188a3.377,3.377,0,0,0,3.37-3.385l-.353-145.673a3.377,3.377,0,0,0-3.385-3.37Z" transform="translate(-354.775 -173.669)"/><g class="a" transform="translate(94.556 49.078)"><path class="e" d="M551.294,282.134a25.9,25.9,0,1,0-40.352,21.5l.015.114a8.864,8.864,0,0,0,2.938,1.869l.033-.114c1.211,1.041,6.318,2.707,12.189,2.692h.127a23.788,23.788,0,0,0,11.3-2.575s.031-.069.079-.2a9.228,9.228,0,0,0,2.443-1.673l.041-.295A25.873,25.873,0,0,0,551.294,282.134Z" transform="translate(-499.49 -256.234)"/></g><circle class="f" cx="25.124" cy="25.124" r="25.124" transform="translate(95.336 49.857)"/><rect class="g" width="19.812" height="1.239" rx="0.62" transform="translate(108.977 39.853) rotate(-0.86)"/><circle class="g" cx="0.744" cy="0.744" r="0.744" transform="translate(132.251 39.255) rotate(-0.86)"/><rect class="f" width="41.137" height="4.571" transform="translate(98.368 110.188)"/><rect class="f" width="59.42" height="4.571" transform="translate(89.226 119.33)"/><path class="l" d="M387.152,618.472v11.3H326.877v3.74a.792.792,0,0,1-1.148.708l-17.47-8.735a.876.876,0,0,1-.038-1.547l17.775-10a.582.582,0,0,1,.866.508l-.056,3.944Z" transform="translate(-261.901 -473.975)"/><path class="l" d="M696.63,618.472v11.3h60.276v3.74a.792.792,0,0,0,1.148.708l17.471-8.735a.876.876,0,0,0,.038-1.547l-17.775-10a.582.582,0,0,0-.866.508l.056,3.944Z" transform="translate(-552.013 -473.975)"/><g class="a" transform="translate(121.222 135.327)"><circle class="e" cx="13.712" cy="13.712" r="13.712"/></g><circle class="m" cx="11.427" cy="11.427" r="11.427" transform="translate(123.507 137.613)"/><path class="n" d="M549.981,398.92s-5.985.49-4.4,11.4a8.6,8.6,0,0,0,2.849,1.813l3.367-11.4Z" transform="translate(-439.12 -313.609)"/><path class="n" d="M634.873,398.92s5.985.49,4.4,11.4a8.6,8.6,0,0,1-2.849,1.813l-3.367-11.4Z" transform="translate(-504.586 -313.609)"/><path class="o" d="M551.783,328.54s-2.849,8.288-4.4,7.511c0,0,14.982,12.95,28.232,0a39.473,39.473,0,0,0-5.7-7.511Z" transform="translate(-440.663 -261.101)"/><circle class="o" cx="11.137" cy="11.137" r="11.137" transform="translate(109.597 55.524)"/><path class="p" d="M576.157,398.92H556.731l-1.813,7.77s-1.064,3.6.254,5.18,13.7,5.18,22.793.254a10.134,10.134,0,0,0,.254-6.475c-1.036-3.626-.254-.254-.254-.254Z" transform="translate(-445.984 -313.609)"/><path class="p" d="M577.177,398.92H557.751l-1.813,7.77s-1.064,3.6.254,5.18,13.7,5.18,22.793.254a10.135,10.135,0,0,0,.254-6.475c-1.036-3.626-.254-.254-.254-.254Z" transform="translate(-446.745 -313.609)"/><path class="m" d="M576.607,398.92H557.181l-1.813,7.77s-1.064,3.6.254,5.18,13.7,5.18,22.793.254a10.135,10.135,0,0,0,.254-6.475c-1.036-3.626-.254-.254-.254-.254Z" transform="translate(-446.32 -313.609)"/><path class="p" d="M460,310.55h7.77v6.209a3.885,3.885,0,0,1-3.885,3.885h0A3.885,3.885,0,0,1,460,316.759Z" transform="translate(-343.192 -231.684)"/><path class="n" d="M460,309.41h7.77v6.216a3.885,3.885,0,0,1-3.885,3.885h0A3.885,3.885,0,0,1,460,315.626V309.41Z" transform="translate(-343.192 -230.834)"/><path class="p" d="M587.22,374.074a11.173,11.173,0,0,0,7.77.02v-.955h-7.77Z" transform="translate(-470.386 -294.376)"/><circle class="n" cx="11.137" cy="11.137" r="11.137" transform="translate(109.597 57.942)"/><path class="o" d="M560.64,294.676h21.239s-1.813-8.575-9.842-8.029S560.64,294.676,560.64,294.676Z" transform="translate(-450.556 -229.827)"/><ellipse class="n" cx="1.036" cy="1.943" rx="1.036" ry="1.943" transform="translate(108.789 66.662)"/><ellipse class="n" cx="1.036" cy="1.943" rx="1.036" ry="1.943" transform="translate(130.546 66.662)"/><path class="p" d="M560.64,295.816h21.239s-1.813-8.575-9.842-8.029S560.64,295.816,560.64,295.816Z" transform="translate(-450.556 -230.678)"/><path class="q" d="M837.981,272.92s-5.985.49-4.4,11.4a8.6,8.6,0,0,0,2.849,1.813l3.367-11.4Z" transform="translate(-653.987 -219.605)"/><path class="q" d="M922.873,272.92s5.985.49,4.4,11.4a8.6,8.6,0,0,1-2.849,1.813l-3.367-11.4Z" transform="translate(-719.454 -219.605)"/><circle class="o" cx="11.137" cy="11.137" r="11.137" transform="translate(182.729 23.529)"/><path class="q" d="M864.157,272.92H844.731l-1.813,7.77s-1.064,3.6.254,5.18,13.7,5.18,22.793.254a10.134,10.134,0,0,0,.254-6.475c-1.036-3.626-.254-.254-.254-.254Z" transform="translate(-660.852 -219.605)"/><path class="q" d="M865.177,272.92H845.751l-1.813,7.77s-1.064,3.6.254,5.18,13.7,5.18,22.793.254a10.135,10.135,0,0,0,.254-6.475c-1.036-3.626-.254-.254-.254-.254Z" transform="translate(-661.613 -219.605)"/><path class="q" d="M864.607,272.92H845.181l-1.813,7.77s-1.064,3.6.254,5.18,13.7,5.18,22.793.254a10.134,10.134,0,0,0,.254-6.475c-1.036-3.626-.254-.254-.254-.254Z" transform="translate(-661.187 -219.605)"/><path class="p" d="M748,184.55h7.77v6.209a3.885,3.885,0,0,1-3.885,3.885h0A3.885,3.885,0,0,1,748,190.759Z" transform="translate(-558.059 -137.68)"/><path class="r" d="M748,183.41h7.77v6.216a3.885,3.885,0,0,1-3.885,3.885h0A3.885,3.885,0,0,1,748,189.626Z" transform="translate(-558.059 -136.829)"/><path class="p" d="M875.22,248.074a11.173,11.173,0,0,0,7.77.02v-.955h-7.77Z" transform="translate(-685.254 -200.371)"/><circle class="r" cx="11.137" cy="11.137" r="11.137" transform="translate(182.729 25.947)"/><path class="p" d="M848.64,169.816h21.239s-1.813-8.575-9.842-8.029S848.64,169.816,848.64,169.816Z" transform="translate(-665.423 -136.673)"/><path class="o" d="M848.64,168.676h21.239s-1.813-8.575-9.842-8.029S848.64,168.676,848.64,168.676Z" transform="translate(-665.423 -135.822)"/><ellipse class="r" cx="1.036" cy="1.943" rx="1.036" ry="1.943" transform="translate(181.922 34.667)"/><ellipse class="r" cx="1.036" cy="1.943" rx="1.036" ry="1.943" transform="translate(203.678 34.667)"/><path class="o" d="M854.162,151.781a3.946,3.946,0,0,1,1.432-2.123,7.39,7.39,0,0,1,1.816-.777,13.865,13.865,0,0,0,2.638-1.27,16.95,16.95,0,0,1,2.872-1.668,9.528,9.528,0,0,1,5.63.17,4.737,4.737,0,0,1,1.315.49,4.986,4.986,0,0,1,1.168,1.13l2.93,3.54a5.618,5.618,0,0,1,.729,1.016,3.529,3.529,0,0,1,.333,1.158,2.672,2.672,0,0,1-2.811,3.21,9.334,9.334,0,0,1-2.882-.521,57.029,57.029,0,0,0-9.256-2.087,26.11,26.11,0,0,0-4.71-.152c-.493.033-1.145.254-1.445-.254C853.659,153.225,854.028,152.21,854.162,151.781Z" transform="translate(-669.295 -124.6)"/><path class="s" d="M252.981,271.92s-5.985.49-4.4,11.4a8.6,8.6,0,0,0,2.849,1.813l3.367-11.4Z" transform="translate(-217.537 -218.859)"/><path class="s" d="M337.873,271.92s5.985.49,4.4,11.4a8.6,8.6,0,0,1-2.849,1.813l-3.367-11.4Z" transform="translate(-283.004 -218.859)"/><path class="o" d="M262.935,201.54s-.46,1.341-1.112,2.892c-1.425,3.4.2,16.432,3.611,17.821a19.381,19.381,0,0,0,14.083.653c4.543-1.656,5.942-16.506,2.732-20.109-.376-.424-.762-.846-1.181-1.254Z" transform="translate(-227.232 -166.35)"/><circle class="o" cx="11.137" cy="11.137" r="11.137" transform="translate(34.179 23.275)"/><path class="p" d="M279.157,271.92H259.731l-1.813,7.77s-1.064,3.6.254,5.18,13.7,5.18,22.793.254a10.134,10.134,0,0,0,.254-6.475c-1.036-3.626-.254-.254-.254-.254Z" transform="translate(-224.401 -218.859)"/><path class="p" d="M280.177,271.92H260.751l-1.813,7.77s-1.064,3.6.254,5.18,13.7,5.18,22.793.254a10.135,10.135,0,0,0,.254-6.475c-1.036-3.626-.254-.254-.254-.254Z" transform="translate(-225.162 -218.859)"/><path class="t" d="M279.607,271.92H260.181l-1.813,7.77s-1.064,3.6.254,5.18,13.7,5.18,22.793.254a10.134,10.134,0,0,0,.254-6.475c-1.036-3.626-.254-.254-.254-.254Z" transform="translate(-224.737 -218.859)"/><path class="p" d="M163,183.55h7.77v6.209a3.885,3.885,0,0,1-3.885,3.885h0A3.885,3.885,0,0,1,163,189.759Z" transform="translate(-121.609 -136.933)"/><path class="s" d="M163,182.41h7.77v6.216a3.885,3.885,0,0,1-3.885,3.885h0A3.885,3.885,0,0,1,163,188.626Z" transform="translate(-121.609 -136.083)"/><path class="p" d="M290.22,247.075a11.173,11.173,0,0,0,7.77.02v-.955h-7.77Z" transform="translate(-248.804 -199.625)"/><circle class="s" cx="11.137" cy="11.137" r="11.137" transform="translate(34.179 25.693)"/><path class="o" d="M263.64,167.676h21.239s-1.813-8.575-9.842-8.029S263.64,167.676,263.64,167.676Z" transform="translate(-228.973 -135.076)"/><ellipse class="s" cx="1.036" cy="1.943" rx="1.036" ry="1.943" transform="translate(33.372 34.413)"/><ellipse class="s" cx="1.036" cy="1.943" rx="1.036" ry="1.943" transform="translate(55.128 34.413)"/><path class="p" d="M263.64,168.816h21.239s-1.813-8.575-9.842-8.029S263.64,168.816,263.64,168.816Z" transform="translate(-228.973 -135.927)"/></g></svg>